<?xml version="1.0" standalone="no"?>
<!DOCTYPE svg PUBLIC "-//W3C//DTD SVG 20010904//EN"
 "http://www.w3.org/TR/2001/REC-SVG-20010904/DTD/svg10.dtd">
<svg version="1.0" xmlns="http://www.w3.org/2000/svg"
 width="276.000000pt" height="276.000000pt" viewBox="0 0 276.000000 276.000000"
 preserveAspectRatio="xMidYMid meet">
<metadata>
Created by potrace 1.14, written by Peter Selinger 2001-2017
</metadata>
<g transform="translate(0.000000,276.000000) scale(0.100000,-0.100000)"
fill="#000000" stroke="none">
<path d="M355 2742 c-167 -58 -294 -197 -340 -372 -12 -46 -15 -204 -14 -975
0 -608 3 -937 10 -970 42 -196 210 -363 407 -404 68 -14 1830 -15 1915 -1 150
24 303 140 370 280 19 41 40 99 46 128 8 37 11 338 11 970 0 1009 2 973 -63
1097 -45 86 -138 175 -233 221 l-78 39 -990 2 c-920 2 -995 1 -1041 -15z"/>
</g>
</svg>
